<svg xmlns="http://www.w3.org/2000/svg" viewBox="0 0 64 64" role="img" aria-label="Dr Varun Dental Clinic">
  <rect width="64" height="64" rx="18" fill="#B85F0D"/>
  <path d="M20.4 15.8c3.6-2.8 8.3-1.4 11.6.4 3.3-1.8 8-3.2 11.6-.4 5.5 4.3 3.3 13.6.9 21.2-2 6.6-3.4 12-7 12-2.4 0-3-3.1-3.8-7.2-.5-2.8-1-5.2-1.7-5.2s-1.2 2.4-1.7 5.2c-.8 4.1-1.4 7.2-3.8 7.2-3.6 0-5-5.4-7-12-2.4-7.6-4.6-16.9.9-21.2Z" fill="#FEFCFF"/>
  <path d="M22 22.6c2.8-2 6.1-.3 8.2 1.1" fill="none" stroke="#6C3C11" stroke-width="3" stroke-linecap="round"/>
</svg>
